<?xml version="1.0" encoding="UTF-8"?>
<svg xmlns="http://www.w3.org/2000/svg" viewBox="0 0 24 24">
  <path d="M12,8C12,5.79 13.79,4 16,4C18.21,4 20,5.79 20,8C20,10.21 18.21,12 16,12C13.79,12 12,10.21 12,8M12,10.58C12.24,11.06 12.57,11.49 12.97,11.82C13.26,11.94 13.57,12 13.9,12C14.23,12 14.54,11.94 14.83,11.82C15.23,11.49 15.56,11.06 15.8,10.58C16.46,10.58 17.13,10.58 17.74,10.58C17.9,10.58 18.01,10.73 17.96,10.89C17.61,11.94 16.7,12.79 15.53,13C14.44,13.22 13.27,12.84 12.53,12C11.36,12.79 10.09,13.17 9,12.96C7.81,12.74 6.9,11.89 6.55,10.85C6.5,10.69 6.61,10.54 6.77,10.54C7.38,10.54 8.04,10.54 8.7,10.54C8.94,11.02 9.28,11.44 9.67,11.78C9.97,11.91 10.28,11.97 10.6,11.97C10.93,11.97 11.23,11.91 11.53,11.78C11.92,11.45 12.26,11.02 12.5,10.54L12,10.58M20,19C20,19.5 19.67,20 19,20H5C4.33,20 4,19.5 4,19V13H6V18H18V13H20V19Z" fill="#4285f4"/>
</svg>