<?xml version="1.0" encoding="UTF-8"?>
<svg xmlns="http://www.w3.org/2000/svg" viewBox="0 0 24 24">
  <path d="M6,2H18C19.1,2 20,2.9 20,4V20C20,21.1 19.1,22 18,22H6C4.9,22 4,21.1 4,20V4C4,2.9 4.9,2 6,2M12,4C8.14,4 5,7.14 5,11C5,14.86 8.14,18 12,18C15.86,18 19,14.86 19,11C19,7.14 15.86,4 12,4M12,16C9.24,16 7,13.76 7,11C7,8.24 9.24,6 12,6C14.76,6 17,8.24 17,11C17,13.76 14.76,16 12,16M12,8C10.35,8 9,9.35 9,11C9,12.65 10.35,14 12,14C13.65,14 15,12.65 15,11C15,9.35 13.65,8 12,8Z" fill="#5b92e5"/>
</svg>