<?xml version="1.0" encoding="UTF-8"?>
<svg width="24" height="24" viewBox="0 0 24 24" xmlns="http://www.w3.org/2000/svg">
    <path d="M14,2H6A2,2 0 0,0 4,4V20A2,2 0 0,0 6,22H18A2,2 0 0,0 20,20V8L14,2M18,20H6V4H13V9H18V20Z" fill="#E3F2FD" stroke="#90CAF9" stroke-width="0.5"/>
    <path d="M10.2,13.3C9.9,13.3 9.5,13.3 9.1,13.3C8.9,13.3 8.7,13.3 8.5,13.3V17.5H9.1V15.7L9.2,15.7C9.5,15.7 9.8,15.7 10.1,15.7C10.6,15.7 10.9,15.6 11.2,15.3C11.4,15.1 11.5,14.7 11.5,14.3C11.5,13.9 11.4,13.5 11.1,13.4C10.9,13.3 10.6,13.3 10.2,13.3M10.1,15.1C9.9,15.1 9.7,15.1 9.6,15.1L9.1,15.1V13.8L9.8,13.8C10,13.8 10.2,13.8 10.4,13.8C10.6,13.8 10.7,13.9 10.8,14C10.9,14.1 10.9,14.2 10.9,14.3C10.9,14.5 10.9,14.6 10.8,14.7C10.7,15 10.5,15.1 10.1,15.1M13.9,13.3L13.3,13.3V17.5H13.9V13.3M16,13.3H15.4L14.2,17.5H14.8L15.1,16.3H16.3L16.6,17.5H17.2L16,13.3M15.2,15.8L15.7,14.1L16.2,15.8H15.2Z" fill="#F44336"/>
</svg>