<?xml version="1.0" encoding="UTF-8"?>
<svg width="24" height="24" viewBox="0 0 24 24" xmlns="http://www.w3.org/2000/svg">
    <defs>
        <linearGradient id="folder_grad" x1="0%" y1="0%" x2="0%" y2="100%">
            <stop offset="0%" stop-color="#FFCA28"/>
            <stop offset="100%" stop-color="#FFB300"/>
        </linearGradient>
    </defs>
    <path d="M10,4H4C2.89,4 2,4.89 2,6V18A2,2 0 0,0 4,20H20A2,2 0 0,0 22,18V8C22,6.89 21.1,6 20,6H12L10,4Z" fill="url(#folder_grad)" stroke="#E65100" stroke-width="0.5"/>
    <path d="M3,12V6.75L9,5.43V11.91L3,12M20,3V11.75L10,11.9V5.21L20,3M3,13L9,13.09V19.9L3,18.75V13M20,13.25V22L10,20.09V13.1L20,13.25Z" fill="#0078D6" transform="scale(0.7) translate(5, 5)"/>
</svg>